<svg xmlns="http://www.w3.org/2000/svg" version="1.1" xmlns:xlink="http://www.w3.org/1999/xlink" xmlns:svgjs="http://svgjs.dev/svgjs" width="1000" height="1000" viewBox="0 0 1000 1000"><rect width="1000" height="1000" fill="#ff5858"></rect><g transform="matrix(0.7,0,0,0.7,150.472388324571,228.61991902834018)"><svg viewBox="0 0 318 247" data-background-color="#ff5858" preserveAspectRatio="xMidYMid meet" height="776" width="1000" xmlns="http://www.w3.org/2000/svg" xmlns:xlink="http://www.w3.org/1999/xlink"><g id="tight-bounds" transform="matrix(1,0,0,1,-0.21459926744796576,-0.09999999999999432)"><svg viewBox="0 0 318.42919853489593 247.2" height="247.2" width="318.42919853489593"><g><svg viewBox="0 0 395.52 307.04641549787186" height="247.2" width="318.42919853489593"><g><svg viewBox="0 0 395.52 307.04641549787186" height="307.04641549787186" width="395.52"><g id="textblocktransform"><svg viewBox="0 0 395.52 307.04641549787186" height="307.04641549787186" width="395.52" id="textblock"><g><svg viewBox="0 0 395.52 236.5673569876901" height="236.5673569876901" width="395.52"><g transform="matrix(1,0,0,1,0,0)"><svg width="395.52" viewBox="2.3 -35.8 69.05 41.3" height="236.5673569876901" data-palette-color="#5e1914"><path d="M24.8-35L36.6-35 36.6-11.55Q36.6-6.15 34.4-2.3 32.2 1.55 28.15 3.53 24.1 5.5 18.6 5.5L18.6 5.5Q13.85 5.5 9.98 4.38 6.1 3.25 3.25 1.25L3.25 1.25 7.55-7.1Q10-5.55 12.73-4.73 15.45-3.9 18.05-3.9L18.05-3.9Q21.65-3.9 23.23-5.58 24.8-7.25 24.8-10.9L24.8-10.9 24.8-11.9Q21.45-8.1 15.85-8.1L15.85-8.1Q9.25-8.1 5.78-11.83 2.3-15.55 2.3-22.65L2.3-22.65 2.3-35 14.1-35 14.1-23.5Q14.1-20.55 15.38-19.1 16.65-17.65 19.3-17.65L19.3-17.65Q21.8-17.65 23.3-19.13 24.8-20.6 24.8-23.9L24.8-23.9 24.8-35ZM55.05 0.8Q50.7 0.8 46.57-0.18 42.45-1.15 39.8-2.8L39.8-2.8 43.6-11.4Q46.1-9.95 49.2-9.08 52.3-8.2 55.15-8.2L55.15-8.2Q57.6-8.2 58.65-8.68 59.7-9.15 59.7-10.1L59.7-10.1Q59.7-11.2 58.32-11.75 56.95-12.3 53.8-12.95L53.8-12.95Q49.75-13.8 47.05-14.78 44.35-15.75 42.35-17.98 40.35-20.2 40.35-24L40.35-24Q40.35-27.3 42.2-30 44.05-32.7 47.72-34.25 51.4-35.8 56.65-35.8L56.65-35.8Q60.25-35.8 63.72-35.02 67.2-34.25 69.85-32.75L69.85-32.75 66.3-24.2Q61.15-26.8 56.55-26.8L56.55-26.8Q52-26.8 52-24.6L52-24.6Q52-23.55 53.35-23.03 54.7-22.5 57.8-21.9L57.8-21.9Q61.8-21.15 64.55-20.18 67.3-19.2 69.32-17 71.35-14.8 71.35-11L71.35-11Q71.35-7.7 69.5-5.03 67.65-2.35 63.97-0.78 60.3 0.8 55.05 0.8L55.05 0.8Z" opacity="1" transform="matrix(1,0,0,1,0,0)" fill="#5e1914" class="wordmark-text-0" data-fill-palette-color="primary" id="text-0"></path></svg></g></svg></g><g transform="matrix(1,0,0,1,75.54432000000001,292.41523235591603)"><svg viewBox="0 0 244.43135999999996 14.631183141955836" height="14.631183141955836" width="244.43135999999996"><g transform="matrix(1,0,0,1,0,0)"><svg width="244.43135999999996" viewBox="2.9 -37.1 633.9200000000001 37.95" height="14.631183141955836" data-palette-color="#8d021f"><path d="M8.6 0Q7.05 0 5.25 0.25 3.45 0.5 2.9 0.6L2.9 0.6 3.2-1.7Q5.5-2.15 6.3-3.03 7.1-3.9 7.1-6L7.1-6 7.15-27Q7.15-28.6 6.78-29.15 6.4-29.7 5.3-29.7L5.3-29.7Q4.8-29.7 4.3-29.65 3.8-29.6 3.6-29.6L3.6-29.6 3.5-29.8 3.85-32Q4.45-31.95 6.1-31.9 7.75-31.85 9.4-31.85L9.4-31.85Q11.1-31.85 12.88-31.93 14.65-32 15.3-32.05L15.3-32.05Q20.05-32.05 22.6-30.08 25.15-28.1 25.15-24.45L25.15-24.45Q25.15-21.95 23.63-19.95 22.1-17.95 19.35-16.75L19.35-16.75Q23-15.95 25.05-13.95 27.1-11.95 27.1-9.15L27.1-9.15Q27.1-6.6 25.48-4.38 23.85-2.15 21.15-0.83 18.45 0.5 15.35 0.5L15.35 0.5Q14 0.5 12.25 0.25L12.25 0.25Q9.4 0 8.6 0L8.6 0ZM10.95-17.55Q11.7-17.5 13.48-17.35 15.25-17.2 16.4-17.15L16.4-17.15Q16.4-17 17.7-17.68 19-18.35 20.05-19.78 21.1-21.2 21.1-23.6L21.1-23.6Q21.1-26.8 18.95-28.35 16.8-29.9 12.3-29.9L12.3-29.9Q11.8-29.9 11.63-29.68 11.45-29.45 11.4-28.75L11.4-28.75Q11.1-23.95 10.95-17.55L10.95-17.55ZM10.85-14.9L10.65-5.55Q10.65-3.65 11.95-2.85 13.25-2.05 16.35-2.05L16.35-2.05Q19.35-2.05 21.08-3.73 22.8-5.4 22.8-8.25L22.8-8.25Q22.8-10.95 21.1-12.68 19.4-14.4 16.05-15L16.05-15 10.85-14.9ZM48.45 0.6Q44.4 0.6 44-3.45L44-3.45 43.8-3.5Q42-1.7 40.52-0.65 39.05 0.4 38.3 0.4L38.3 0.4Q35.5 0.4 33.7-1.35 31.9-3.1 31.9-5.8L31.9-5.8Q31.9-7.25 32.62-8.35 33.35-9.45 34.55-9.8L34.55-9.8 44.05-12.4 44.1-14.6Q44.1-17.1 42.95-18.5 41.8-19.9 39.7-19.9L39.7-19.9Q38.3-19.9 36.75-19.25 35.2-18.6 33.7-17.4L33.7-17.4 33.45-17.55 32.85-19.7Q35.2-21.05 37.57-22.13 39.95-23.2 41-23.2L41-23.2Q44.25-23.2 46.1-21.5 47.95-19.8 47.95-16.75L47.95-16.75Q47.95-15.65 47.6-12.25L47.6-12.25Q47.05-6.75 47.05-5.25L47.05-5.25Q47.05-4.15 47.6-3.55 48.15-2.95 49.1-2.95L49.1-2.95Q49.9-2.95 50.75-3.33 51.6-3.7 52.1-4.2L52.1-4.2 52.8-3.4Q52.05-2.15 50.87-0.98 49.7 0.2 48.45 0.6L48.45 0.6ZM39.15-3Q40.1-3 41.37-3.68 42.65-4.35 43.7-5.4L43.7-5.4 43.95-10.5 37.15-8.45Q35.7-8 35.7-6.35L35.7-6.35Q35.7-4.9 36.67-3.95 37.65-3 39.15-3L39.15-3ZM65.4 0.6Q60.65 0.6 57.8-2.4 54.95-5.4 54.95-10.45L54.95-10.45Q54.95-14 56.47-16.93 58-19.85 60.62-21.53 63.25-23.2 66.5-23.2L66.5-23.2Q67.9-23.2 69.2-23 70.5-22.8 71.32-22.58 72.15-22.35 72.34-22.25L72.34-22.25 72.5-21.9Q72.45-21.65 72.22-20.73 72-19.8 71.75-18.28 71.5-16.75 71.45-15L71.45-15 69.4-14.85 69.4-16.4Q69.4-18.25 68.27-19.38 67.15-20.5 65.3-20.5L65.3-20.5Q62.25-20.5 60.6-18.32 58.95-16.15 58.95-12.15L58.95-12.15Q58.95-7.8 60.77-5.28 62.6-2.75 65.75-2.75L65.75-2.75Q67-2.75 68.25-3.13 69.5-3.5 70.34-3.88 71.2-4.25 71.4-4.4L71.4-4.4 71.7-4.3 72.25-2.75Q71.9-2.5 70.72-1.7 69.55-0.9 68.02-0.15 66.5 0.6 65.4 0.6L65.4 0.6ZM76.04-1.75Q77.34-1.95 77.89-2.48 78.44-3 78.57-3.85 78.69-4.7 78.69-6.75L78.69-6.75 78.69-31.3Q78.69-34 76.84-34L76.84-34Q76.49-34 76.09-33.93 75.69-33.85 75.59-33.8L75.59-33.8Q75.59-34.1 75.69-34.7L75.69-34.7 75.79-35.65Q77.94-35.95 80.24-36.45 82.54-36.95 83.19-37.1L83.19-37.1 83.49-36.45Q82.94-35.6 82.52-25.85 82.09-16.1 82.09-4.9L82.09-4.9Q82.09-3.35 82.49-2.73 82.89-2.1 83.89-2.1L83.89-2.1Q84.44-2.1 84.94-2.15 85.44-2.2 85.64-2.2L85.64-2.2 85.74-2 85.29 0.15Q84.84 0.1 83.54 0.05 82.24 0 80.74 0L80.74 0Q79.44 0 77.87 0.13 76.29 0.25 75.79 0.3L75.79 0.3 76.04-1.75ZM83.34-11.7L83.44-12.5 89.39-18.2Q90.09-18.85 90.34-19.23 90.59-19.6 90.59-19.95L90.59-19.95Q90.59-20.5 89.94-20.75 89.29-21 87.84-21L87.84-21 87.69-21.25 88.14-22.7Q88.69-22.7 90.17-22.65 91.64-22.6 93.19-22.6L93.19-22.6Q94.39-22.6 95.94-22.73 97.49-22.85 97.94-22.9L97.94-22.9 98.09-22.65 97.69-21.1Q95.64-20.5 93.57-18.8 91.49-17.1 88.59-14.2L88.59-14.2Q88.59-14.2 87.04-12.65L87.04-12.65 92.29-5.9Q93.99-3.7 95.39-2.75 96.79-1.8 98.34-1.8L98.34-1.8 98.49-1.55 98.19-0.1Q97.74 0.05 96.34 0.38 94.94 0.7 94.49 0.7L94.49 0.7Q93.74 0.7 92.74 0.2L92.74 0.2Q91.99-0.2 91.22-1.03 90.44-1.85 89.24-3.55L89.24-3.55 83.34-11.7ZM110.49 0.6Q107.39 0.6 104.99-0.78 102.59-2.15 101.29-4.67 99.99-7.2 99.99-10.45L99.99-10.45Q99.99-13.8 101.52-16.75 103.04-19.7 105.59-21.45 108.14-23.2 111.04-23.2L111.04-23.2Q114.69-23.2 116.59-21.35 118.49-19.5 118.49-15.95L118.49-15.95Q118.49-14.5 118.19-13.5L118.19-13.5 117.54-12.9 103.74-12.9Q103.69-8.05 105.66-5.43 107.64-2.8 111.19-2.8L111.19-2.8Q113.99-2.8 117.29-4.35L117.29-4.35 117.59-4.25 118.14-2.8Q116.34-1.5 114.16-0.45 111.99 0.6 110.49 0.6L110.49 0.6ZM103.94-14.75L112.99-15.2Q113.74-15.3 113.99-15.55 114.24-15.8 114.24-16.55L114.24-16.55Q114.24-18.55 113.16-19.6 112.09-20.65 110.09-20.65L110.09-20.65Q107.74-20.65 106.06-19.05 104.39-17.45 103.94-14.75L103.94-14.75ZM136.94-1.45Q138.44-1.85 139.09-2.63 139.74-3.4 139.74-4.7L139.74-4.7 139.94-14.6Q139.94-17.1 138.86-18.45 137.79-19.8 135.79-19.8L135.79-19.8Q134.19-19.8 132.54-18.98 130.89-18.15 129.64-17.2L129.64-17.2Q129.19-6.85 129.19-4.9L129.19-4.9Q129.19-3.35 129.59-2.73 129.99-2.1 130.99-2.1L130.99-2.1Q131.54-2.1 132.04-2.15 132.54-2.2 132.74-2.2L132.74-2.2 132.84-2 132.39 0.15Q131.94 0.1 130.64 0.05 129.34 0 127.84 0L127.84 0Q126.54 0 124.96 0.13 123.39 0.25 122.89 0.3L122.89 0.3 123.14-1.75Q124.59-2 125.19-2.65 125.79-3.3 125.79-4.7L125.79-4.7 125.79-16.9Q125.79-18.6 125.24-19.28 124.69-19.95 123.34-19.95L123.34-19.95 122.79-19.95 122.64-20.15 122.79-21.8Q124.94-22.15 127.06-22.63 129.19-23.1 129.79-23.25L129.79-23.25 130.09-22.85Q129.99-22.55 129.79-21.58 129.59-20.6 129.54-19.55L129.54-19.55 129.64-19.4Q135.34-23.2 136.99-23.2L136.99-23.2Q140.14-23.2 141.99-21.45 143.84-19.7 143.84-16.75L143.84-16.75Q143.84-16.25 143.54-12.15L143.54-12.15Q143.14-6.95 143.14-4.9L143.14-4.9Q143.14-3.45 143.54-2.78 143.94-2.1 144.89-2.1L144.89-2.1Q145.44-2.1 145.94-2.15 146.44-2.2 146.64-2.2L146.64-2.2 146.74-2 146.34 0.15Q145.89 0.1 144.64 0.05 143.39 0 141.89 0L141.89 0Q140.59 0 138.91 0.25 137.24 0.5 136.74 0.6L136.74 0.6 136.94-1.45ZM170.49 0.6Q166.59 0.6 166.04-2.95L166.04-2.95 165.69-3.1Q160.49 0.45 159.44 0.45L159.44 0.45Q156.59 0.45 154.39-0.88 152.19-2.2 150.99-4.6 149.79-7 149.79-10.1L149.79-10.1Q149.79-13.65 151.46-16.65 153.14-19.65 156.01-21.43 158.89-23.2 162.24-23.2L162.24-23.2Q163.84-23.2 165.69-23L165.69-23 165.69-31.3Q165.69-34 163.84-34L163.84-34Q163.49-34 163.09-33.93 162.69-33.85 162.59-33.8L162.59-33.8 162.79-35.65Q164.94-35.95 167.24-36.45 169.54-36.95 170.19-37.1L170.19-37.1 170.49-36.45Q169.94-35.6 169.51-25.9 169.09-16.2 169.09-5.25L169.09-5.25Q169.09-4.15 169.64-3.55 170.19-2.95 171.14-2.95L171.14-2.95Q171.84-2.95 172.51-3.23 173.19-3.5 173.61-3.8 174.04-4.1 174.14-4.2L174.14-4.2 174.84-3.4Q174.69-3.15 174.09-2.33 173.49-1.5 172.51-0.6 171.54 0.3 170.49 0.6L170.49 0.6ZM160.24-2.8Q161.29-2.8 162.51-3.4 163.74-4 164.59-4.63 165.44-5.25 165.69-5.45L165.69-5.45 165.69-19.15Q165.54-19.25 164.94-19.53 164.34-19.8 163.26-20.05 162.19-20.3 160.84-20.3L160.84-20.3Q157.49-20.3 155.56-18.03 153.64-15.75 153.64-11.8L153.64-11.8Q153.64-9.3 154.51-7.25 155.39-5.2 156.91-4 158.44-2.8 160.24-2.8L160.24-2.8ZM186.93 0.6L187.13-1.45Q188.63-1.85 189.28-2.63 189.93-3.4 189.93-4.7L189.93-4.7 189.93-17.4Q189.93-20.1 188.08-20.1L188.08-20.1Q187.73-20.1 187.33-20.03 186.93-19.95 186.83-19.9L186.83-19.9 187.03-21.75Q189.13-22.05 191.36-22.55 193.58-23.05 194.23-23.2L194.23-23.2 194.48-22.6Q194.03-21.55 193.68-16.18 193.33-10.8 193.33-4.9L193.33-4.9Q193.33-3.45 193.73-2.78 194.13-2.1 195.08-2.1L195.08-2.1Q195.63-2.1 196.13-2.15 196.63-2.2 196.83-2.2L196.83-2.2 196.93-2 196.53 0.15Q196.08 0.1 194.83 0.05 193.58 0 192.08 0L192.08 0Q190.78 0 189.11 0.25 187.43 0.5 186.93 0.6L186.93 0.6ZM191.33-29.1Q190.18-29.1 189.53-29.85 188.88-30.6 188.88-31.65L188.88-31.65Q188.88-32.85 189.73-33.73 190.58-34.6 191.83-34.6L191.83-34.6Q192.98-34.6 193.63-33.85 194.28-33.1 194.28-32.05L194.28-32.05Q194.28-30.85 193.43-29.98 192.58-29.1 191.33-29.1L191.33-29.1ZM207.38 0.6Q205.78 0.6 204.45 0.38 203.13 0.15 202.38-0.1 201.63-0.35 201.43-0.45L201.43-0.45 201.28-0.8Q201.43-1.55 201.63-3.9 201.83-6.25 201.88-7.5L201.88-7.5 203.63-7.75Q203.63-4.45 204.73-3.1 205.83-1.75 208.48-1.75L208.48-1.75Q210.38-1.75 211.68-2.6 212.98-3.45 212.98-4.7L212.98-4.7Q212.98-5.95 211.8-6.98 210.63-8 207.18-9.85L207.18-9.85Q204.33-11.3 203.03-12.8 201.73-14.3 201.73-16.1L201.73-16.1Q201.73-18.1 202.93-19.73 204.13-21.35 206.23-22.28 208.33-23.2 210.93-23.2L210.93-23.2Q212.13-23.2 213.23-23.03 214.33-22.85 215.03-22.65 215.73-22.45 215.93-22.4L215.93-22.4 216.03-22.15Q215.93-21.65 215.58-19.88 215.23-18.1 215.08-16.05L215.08-16.05 213.23-15.9Q213.23-16.05 213.28-16.5 213.33-16.95 213.33-17.35L213.33-17.35Q213.33-19.15 212.35-19.98 211.38-20.8 209.23-20.8L209.23-20.8Q207.53-20.8 206.35-20 205.18-19.2 205.18-18.05L205.18-18.05Q205.18-16.85 206.2-15.8 207.23-14.75 209.53-13.55L209.53-13.55Q213.58-11.4 215.05-9.93 216.53-8.45 216.53-6.55L216.53-6.55Q216.53-4.65 215.28-3 214.03-1.35 211.9-0.38 209.78 0.6 207.38 0.6L207.38 0.6ZM237.92 0.85Q237.22-1.55 235.05-8.58 232.87-15.6 232.02-18.3L232.02-18.3Q231.17-20.75 228.72-20.8L228.72-20.8 228.62-21 228.92-22.65 232.92-22.6Q234.82-22.6 236.55-22.75 238.27-22.9 238.77-22.95L238.77-22.95 238.87-22.7 238.57-21.15Q236.92-21.1 236.32-20.83 235.72-20.55 235.72-19.85L235.72-19.85Q235.72-18.9 237.47-12.68 239.22-6.45 239.87-4.25L239.87-4.25 240.07-4.25 243.02-11.65Q244.62-15.5 245.32-17.5L245.32-17.5Q244.77-19.2 244-20 243.22-20.8 241.77-20.8L241.77-20.8 241.67-21 241.97-22.65 245.97-22.6Q247.82-22.6 249.57-22.7 251.32-22.8 251.82-22.85L251.82-22.85 251.92-22.6 251.62-21.05Q249.92-21 249.35-20.75 248.77-20.5 248.77-19.85L248.77-19.85Q248.77-18.95 250.52-12.73 252.27-6.5 252.92-4.25L252.92-4.25 253.12-4.25Q255.32-9.9 256.02-11.5L256.02-11.5Q257.27-14.6 258.1-16.8 258.92-19 258.92-19.6L258.92-19.6Q258.92-20.3 258.45-20.58 257.97-20.85 256.87-20.85L256.87-20.85 255.02-20.85 254.82-21.15 255.07-22.7Q255.52-22.7 256.87-22.65 258.22-22.6 260.02-22.6L260.02-22.6 264.12-22.65 263.77-20.8Q262.77-20.7 262.17-19.98 261.57-19.25 260.67-17.05L260.67-17.05 253.67 0 250.97 0.85 246.47-13.9 246.17-13.9 240.67 0 237.92 0.85ZM265.82-1.95Q267.27-2.1 267.84-2.7 268.42-3.3 268.42-4.7L268.42-4.7 268.42-31.3Q268.42-32.65 267.97-33.27 267.52-33.9 266.57-33.9L266.57-33.9 265.52-33.9 265.32-34.05 265.52-35.65Q267.22-35.85 269.37-36.27 271.52-36.7 272.92-37.1L272.92-37.1 273.22-36.45Q272.87-35.9 272.55-31.1 272.22-26.3 272.02-19.3L272.02-19.3Q277.72-23.2 279.52-23.2L279.52-23.2Q282.77-23.2 284.57-21.5 286.37-19.8 286.37-16.75L286.37-16.75Q286.37-15.75 286.02-12.15L286.02-12.15Q285.57-6.3 285.57-4.9L285.57-4.9Q285.57-3.45 285.97-2.78 286.37-2.1 287.32-2.1L287.32-2.1 289.07-2.2 289.17-2 288.77 0.15Q285.47 0 284.32 0L284.32 0Q282.32 0 279.17 0.6L279.17 0.6 279.37-1.45Q280.87-1.85 281.52-2.63 282.17-3.4 282.17-4.7L282.17-4.7 282.47-14.6Q282.47-17.1 281.39-18.45 280.32-19.8 278.32-19.8L278.32-19.8Q277.07-19.8 275.25-19 273.42-18.2 271.97-17.05L271.97-17.05Q271.82-11.45 271.82-4.9L271.82-4.9Q271.82-3.35 272.22-2.73 272.62-2.1 273.62-2.1L273.62-2.1 275.37-2.2 275.47-2 275.02 0.15Q271.57 0 270.47 0L270.47 0Q268.32 0 265.52 0.1L265.52 0.1 265.82-1.95ZM303.07 0.6Q299.97 0.6 297.57-0.78 295.17-2.15 293.87-4.67 292.57-7.2 292.57-10.45L292.57-10.45Q292.57-13.8 294.09-16.75 295.62-19.7 298.17-21.45 300.72-23.2 303.62-23.2L303.62-23.2Q307.27-23.2 309.17-21.35 311.07-19.5 311.07-15.95L311.07-15.95Q311.07-14.5 310.77-13.5L310.77-13.5 310.12-12.9 296.32-12.9Q296.27-8.05 298.24-5.43 300.22-2.8 303.77-2.8L303.77-2.8Q306.57-2.8 309.87-4.35L309.87-4.35 310.17-4.25 310.72-2.8Q308.92-1.5 306.74-0.45 304.57 0.6 303.07 0.6L303.07 0.6ZM296.52-14.75L305.57-15.2Q306.32-15.3 306.57-15.55 306.82-15.8 306.82-16.55L306.82-16.55Q306.82-18.55 305.74-19.6 304.67-20.65 302.67-20.65L302.67-20.65Q300.32-20.65 298.64-19.05 296.97-17.45 296.52-14.75L296.52-14.75ZM316.11-1.8Q317.61-1.95 318.11-2.78 318.61-3.6 318.61-5.95L318.61-5.95 318.61-16.95Q318.61-18.6 318.16-19.3 317.71-20 316.71-20L316.71-20Q316.31-20 316.04-19.95 315.76-19.9 315.66-19.85L315.66-19.85 315.41-20.2 315.56-21.75Q317.46-22.1 319.59-22.6 321.71-23.1 322.31-23.25L322.31-23.25 322.66-22.95Q322.56-22.5 322.36-20.88 322.16-19.25 322.21-17.8L322.21-17.8 322.41-17.65Q323.91-20 325.94-21.5 327.96-23 329.46-23L329.46-23Q330.16-23 330.54-22.93 330.91-22.85 331.01-22.8L331.01-22.8 331.16-22.6Q331.06-21.9 330.74-19.63 330.41-17.35 330.36-15.45L330.36-15.45 328.41-15.3Q328.41-17.35 328.14-18.03 327.86-18.7 327.06-18.7L327.06-18.7Q325.96-18.7 324.71-17.78 323.46-16.85 322.41-15.3L322.41-15.3Q322.36-13.85 322.21-10.5 322.06-7.15 322.01-5.1L322.01-5.1Q322.01-3.4 322.51-2.8 323.01-2.2 324.41-2.2L324.41-2.2Q325.06-2.2 325.71-2.25 326.36-2.3 326.61-2.3L326.61-2.3 326.66-2.1 326.21 0.1Q325.71 0.1 324.21 0.05 322.71 0 321.11 0L321.11 0Q319.26 0 317.76 0.08 316.26 0.15 315.86 0.2L315.86 0.2 316.11-1.8ZM344.11 0.6Q341.01 0.6 338.61-0.78 336.21-2.15 334.91-4.67 333.61-7.2 333.61-10.45L333.61-10.45Q333.61-13.8 335.14-16.75 336.66-19.7 339.21-21.45 341.76-23.2 344.66-23.2L344.66-23.2Q348.31-23.2 350.21-21.35 352.11-19.5 352.11-15.95L352.11-15.95Q352.11-14.5 351.81-13.5L351.81-13.5 351.16-12.9 337.36-12.9Q337.31-8.05 339.29-5.43 341.26-2.8 344.81-2.8L344.81-2.8Q347.61-2.8 350.91-4.35L350.91-4.35 351.21-4.25 351.76-2.8Q349.96-1.5 347.79-0.45 345.61 0.6 344.11 0.6L344.11 0.6ZM337.56-14.75L346.61-15.2Q347.36-15.3 347.61-15.55 347.86-15.8 347.86-16.55L347.86-16.55Q347.86-18.55 346.79-19.6 345.71-20.65 343.71-20.65L343.71-20.65Q341.36-20.65 339.69-19.05 338.01-17.45 337.56-14.75L337.56-14.75ZM374.41 0.6Q371.01 0.6 369.61-0.78 368.21-2.15 368.21-5.45L368.21-5.45 368.21-17.75Q368.21-19.1 367.61-19.65 367.01-20.2 365.36-20.25L365.36-20.25 365.16-20.55 365.41-22.05Q366.86-22.75 368.23-23.78 369.61-24.8 370.48-25.58 371.36-26.35 371.61-26.6L371.61-26.6 372.61-26.2Q372.56-25.95 372.46-25 372.36-24.05 372.21-22.45L372.21-22.45 379.56-22.6 379.71-22.45 379.26-19.8 372.01-19.95Q371.66-14.45 371.66-7.45L371.66-7.45Q371.66-4.9 372.53-3.85 373.41-2.8 375.56-2.8L375.56-2.8Q376.31-2.8 377.06-3 377.81-3.2 378.31-3.43 378.81-3.65 378.96-3.7L378.96-3.7 379.46-2.4Q379.16-2.15 378.18-1.45 377.21-0.75 376.08-0.08 374.96 0.6 374.41 0.6L374.41 0.6ZM382.35-1.95Q383.8-2.1 384.38-2.7 384.95-3.3 384.95-4.7L384.95-4.7 384.95-31.3Q384.95-32.65 384.5-33.27 384.05-33.9 383.1-33.9L383.1-33.9 382.05-33.9 381.85-34.05 382.05-35.65Q383.75-35.85 385.9-36.27 388.05-36.7 389.45-37.1L389.45-37.1 389.75-36.45Q389.4-35.9 389.08-31.1 388.75-26.3 388.55-19.3L388.55-19.3Q394.25-23.2 396.05-23.2L396.05-23.2Q399.3-23.2 401.1-21.5 402.9-19.8 402.9-16.75L402.9-16.75Q402.9-15.75 402.55-12.15L402.55-12.15Q402.1-6.3 402.1-4.9L402.1-4.9Q402.1-3.45 402.5-2.78 402.9-2.1 403.85-2.1L403.85-2.1 405.6-2.2 405.7-2 405.3 0.15Q402 0 400.85 0L400.85 0Q398.85 0 395.7 0.6L395.7 0.6 395.9-1.45Q397.4-1.85 398.05-2.63 398.7-3.4 398.7-4.7L398.7-4.7 399-14.6Q399-17.1 397.93-18.45 396.85-19.8 394.85-19.8L394.85-19.8Q393.6-19.8 391.78-19 389.95-18.2 388.5-17.05L388.5-17.05Q388.35-11.45 388.35-4.9L388.35-4.9Q388.35-3.35 388.75-2.73 389.15-2.1 390.15-2.1L390.15-2.1 391.9-2.2 392-2 391.55 0.15Q388.1 0 387 0L387 0Q384.85 0 382.05 0.1L382.05 0.1 382.35-1.95ZM419.6 0.6Q416.5 0.6 414.1-0.78 411.7-2.15 410.4-4.67 409.1-7.2 409.1-10.45L409.1-10.45Q409.1-13.8 410.63-16.75 412.15-19.7 414.7-21.45 417.25-23.2 420.15-23.2L420.15-23.2Q423.8-23.2 425.7-21.35 427.6-19.5 427.6-15.95L427.6-15.95Q427.6-14.5 427.3-13.5L427.3-13.5 426.65-12.9 412.85-12.9Q412.8-8.05 414.78-5.43 416.75-2.8 420.3-2.8L420.3-2.8Q423.1-2.8 426.4-4.35L426.4-4.35 426.7-4.25 427.25-2.8Q425.45-1.5 423.28-0.45 421.1 0.6 419.6 0.6L419.6 0.6ZM413.05-14.75L422.1-15.2Q422.85-15.3 423.1-15.55 423.35-15.8 423.35-16.55L423.35-16.55Q423.35-18.55 422.28-19.6 421.2-20.65 419.2-20.65L419.2-20.65Q416.85-20.65 415.18-19.05 413.5-17.45 413.05-14.75L413.05-14.75ZM441.35-1.95Q442.8-2.1 443.37-2.7 443.95-3.3 443.95-4.7L443.95-4.7 443.95-31.3Q443.95-32.65 443.5-33.27 443.05-33.9 442.1-33.9L442.1-33.9 441.05-33.9 440.85-34.05 441.05-35.65Q442.75-35.85 444.9-36.27 447.05-36.7 448.45-37.1L448.45-37.1 448.75-36.45Q448.4-35.9 448.07-31.1 447.75-26.3 447.55-19.3L447.55-19.3Q453.25-23.2 455.05-23.2L455.05-23.2Q458.3-23.2 460.1-21.5 461.9-19.8 461.9-16.75L461.9-16.75Q461.9-15.75 461.55-12.15L461.55-12.15Q461.1-6.3 461.1-4.9L461.1-4.9Q461.1-3.45 461.5-2.78 461.9-2.1 462.85-2.1L462.85-2.1 464.6-2.2 464.7-2 464.3 0.15Q461 0 459.85 0L459.85 0Q457.85 0 454.7 0.6L454.7 0.6 454.9-1.45Q456.4-1.85 457.05-2.63 457.7-3.4 457.7-4.7L457.7-4.7 458-14.6Q458-17.1 456.92-18.45 455.85-19.8 453.85-19.8L453.85-19.8Q452.6-19.8 450.77-19 448.95-18.2 447.5-17.05L447.5-17.05Q447.35-11.45 447.35-4.9L447.35-4.9Q447.35-3.35 447.75-2.73 448.15-2.1 449.15-2.1L449.15-2.1 450.9-2.2 451-2 450.55 0.15Q447.1 0 446 0L446 0Q443.85 0 441.05 0.1L441.05 0.1 441.35-1.95ZM478.59 0.6Q475.49 0.6 473.09-0.78 470.69-2.15 469.39-4.67 468.09-7.2 468.09-10.45L468.09-10.45Q468.09-13.8 469.62-16.75 471.14-19.7 473.69-21.45 476.24-23.2 479.14-23.2L479.14-23.2Q482.79-23.2 484.69-21.35 486.59-19.5 486.59-15.95L486.59-15.95Q486.59-14.5 486.29-13.5L486.29-13.5 485.64-12.9 471.84-12.9Q471.79-8.05 473.77-5.43 475.74-2.8 479.29-2.8L479.29-2.8Q482.09-2.8 485.39-4.35L485.39-4.35 485.69-4.25 486.24-2.8Q484.44-1.5 482.27-0.45 480.09 0.6 478.59 0.6L478.59 0.6ZM472.04-14.75L481.09-15.2Q481.84-15.3 482.09-15.55 482.34-15.8 482.34-16.55L482.34-16.55Q482.34-18.55 481.27-19.6 480.19-20.65 478.19-20.65L478.19-20.65Q475.84-20.65 474.17-19.05 472.49-17.45 472.04-14.75L472.04-14.75ZM507.29 0.6Q503.24 0.6 502.84-3.45L502.84-3.45 502.64-3.5Q500.84-1.7 499.37-0.65 497.89 0.4 497.14 0.4L497.14 0.4Q494.34 0.4 492.54-1.35 490.74-3.1 490.74-5.8L490.74-5.8Q490.74-7.25 491.47-8.35 492.19-9.45 493.39-9.8L493.39-9.8 502.89-12.4 502.94-14.6Q502.94-17.1 501.79-18.5 500.64-19.9 498.54-19.9L498.54-19.9Q497.14-19.9 495.59-19.25 494.04-18.6 492.54-17.4L492.54-17.4 492.29-17.55 491.69-19.7Q494.04-21.05 496.42-22.13 498.79-23.2 499.84-23.2L499.84-23.2Q503.09-23.2 504.94-21.5 506.79-19.8 506.79-16.75L506.79-16.75Q506.79-15.65 506.44-12.25L506.44-12.25Q505.89-6.75 505.89-5.25L505.89-5.25Q505.89-4.15 506.44-3.55 506.99-2.95 507.94-2.95L507.94-2.95Q508.74-2.95 509.59-3.33 510.44-3.7 510.94-4.2L510.94-4.2 511.64-3.4Q510.89-2.15 509.72-0.98 508.54 0.2 507.29 0.6L507.29 0.6ZM497.99-3Q498.94-3 500.22-3.68 501.49-4.35 502.54-5.4L502.54-5.4 502.79-10.5 495.99-8.45Q494.54-8 494.54-6.35L494.54-6.35Q494.54-4.9 495.52-3.95 496.49-3 497.99-3L497.99-3ZM514.94-1.8Q516.44-1.95 516.94-2.78 517.44-3.6 517.44-5.95L517.44-5.95 517.44-16.95Q517.44-18.6 516.99-19.3 516.54-20 515.54-20L515.54-20Q515.14-20 514.86-19.95 514.59-19.9 514.49-19.85L514.49-19.85 514.24-20.2 514.39-21.75Q516.29-22.1 518.41-22.6 520.54-23.1 521.14-23.25L521.14-23.25 521.49-22.95Q521.39-22.5 521.19-20.88 520.99-19.25 521.04-17.8L521.04-17.8 521.24-17.65Q522.74-20 524.76-21.5 526.79-23 528.29-23L528.29-23Q528.99-23 529.36-22.93 529.74-22.85 529.84-22.8L529.84-22.8 529.99-22.6Q529.89-21.9 529.56-19.63 529.24-17.35 529.19-15.45L529.19-15.45 527.24-15.3Q527.24-17.35 526.96-18.03 526.69-18.7 525.89-18.7L525.89-18.7Q524.79-18.7 523.54-17.78 522.29-16.85 521.24-15.3L521.24-15.3Q521.19-13.85 521.04-10.5 520.89-7.15 520.84-5.1L520.84-5.1Q520.84-3.4 521.34-2.8 521.84-2.2 523.24-2.2L523.24-2.2Q523.89-2.2 524.54-2.25 525.19-2.3 525.44-2.3L525.44-2.3 525.49-2.1 525.04 0.1Q524.54 0.1 523.04 0.05 521.54 0 519.94 0L519.94 0Q518.09 0 516.59 0.08 515.09 0.15 514.69 0.2L514.69 0.2 514.94-1.8ZM541.44 0.6Q538.04 0.6 536.64-0.78 535.24-2.15 535.24-5.45L535.24-5.45 535.24-17.75Q535.24-19.1 534.64-19.65 534.04-20.2 532.39-20.25L532.39-20.25 532.19-20.55 532.44-22.05Q533.89-22.75 535.26-23.78 536.64-24.8 537.51-25.58 538.39-26.35 538.64-26.6L538.64-26.6 539.64-26.2Q539.59-25.95 539.49-25 539.39-24.05 539.24-22.45L539.24-22.45 546.59-22.6 546.74-22.45 546.29-19.8 539.04-19.95Q538.69-14.45 538.69-7.45L538.69-7.45Q538.69-4.9 539.56-3.85 540.44-2.8 542.59-2.8L542.59-2.8Q543.34-2.8 544.09-3 544.84-3.2 545.34-3.43 545.84-3.65 545.99-3.7L545.99-3.7 546.49-2.4Q546.19-2.15 545.21-1.45 544.24-0.75 543.11-0.08 541.99 0.6 541.44 0.6L541.44 0.6ZM551.18-20.75L550.63-20.85Q550.68-21.75 550.68-23.55L550.68-23.55Q550.68-26.35 550.53-28.73 550.38-31.1 550.33-31.75L550.33-31.75 553.83-32.45 554.18-32.05Q554.08-31.1 553.58-27.88 553.08-24.65 552.43-21.45L552.43-21.45 551.18-20.75ZM564.98 0.6Q563.38 0.6 562.06 0.38 560.73 0.15 559.98-0.1 559.23-0.35 559.03-0.45L559.03-0.45 558.88-0.8Q559.03-1.55 559.23-3.9 559.43-6.25 559.48-7.5L559.48-7.5 561.23-7.75Q561.23-4.45 562.33-3.1 563.43-1.75 566.08-1.75L566.08-1.75Q567.98-1.75 569.28-2.6 570.58-3.45 570.58-4.7L570.58-4.7Q570.58-5.95 569.41-6.98 568.23-8 564.78-9.85L564.78-9.85Q561.93-11.3 560.63-12.8 559.33-14.3 559.33-16.1L559.33-16.1Q559.33-18.1 560.53-19.73 561.73-21.35 563.83-22.28 565.93-23.2 568.53-23.2L568.53-23.2Q569.73-23.2 570.83-23.03 571.93-22.85 572.63-22.65 573.33-22.45 573.53-22.4L573.53-22.4 573.63-22.15Q573.53-21.65 573.18-19.88 572.83-18.1 572.68-16.05L572.68-16.05 570.83-15.9Q570.83-16.05 570.88-16.5 570.93-16.95 570.93-17.35L570.93-17.35Q570.93-19.15 569.96-19.98 568.98-20.8 566.83-20.8L566.83-20.8Q565.13-20.8 563.96-20 562.78-19.2 562.78-18.05L562.78-18.05Q562.78-16.85 563.81-15.8 564.83-14.75 567.13-13.55L567.13-13.55Q571.18-11.4 572.66-9.93 574.13-8.45 574.13-6.55L574.13-6.55Q574.13-4.65 572.88-3 571.63-1.35 569.51-0.38 567.38 0.6 564.98 0.6L564.98 0.6ZM605.03 0.6Q600.98 0.6 600.58-3.45L600.58-3.45 600.38-3.5Q598.58-1.7 597.1-0.65 595.63 0.4 594.88 0.4L594.88 0.4Q592.08 0.4 590.28-1.35 588.48-3.1 588.48-5.8L588.48-5.8Q588.48-7.25 589.2-8.35 589.93-9.45 591.13-9.8L591.13-9.8 600.63-12.4 600.68-14.6Q600.68-17.1 599.53-18.5 598.38-19.9 596.28-19.9L596.28-19.9Q594.88-19.9 593.33-19.25 591.78-18.6 590.28-17.4L590.28-17.4 590.03-17.55 589.43-19.7Q591.78-21.05 594.15-22.13 596.53-23.2 597.58-23.2L597.58-23.2Q600.83-23.2 602.68-21.5 604.53-19.8 604.53-16.75L604.53-16.75Q604.53-15.65 604.18-12.25L604.18-12.25Q603.63-6.75 603.63-5.25L603.63-5.25Q603.63-4.15 604.18-3.55 604.73-2.95 605.68-2.95L605.68-2.95Q606.48-2.95 607.33-3.33 608.18-3.7 608.68-4.2L608.68-4.2 609.38-3.4Q608.63-2.15 607.45-0.98 606.28 0.2 605.03 0.6L605.03 0.6ZM595.73-3Q596.68-3 597.95-3.68 599.23-4.35 600.28-5.4L600.28-5.4 600.53-10.5 593.73-8.45Q592.28-8 592.28-6.35L592.28-6.35Q592.28-4.9 593.25-3.95 594.23-3 595.73-3L595.73-3ZM620.02 0.6Q616.62 0.6 615.22-0.78 613.82-2.15 613.82-5.45L613.82-5.45 613.82-17.75Q613.82-19.1 613.22-19.65 612.62-20.2 610.97-20.25L610.97-20.25 610.77-20.55 611.02-22.05Q612.47-22.75 613.85-23.78 615.22-24.8 616.1-25.58 616.97-26.35 617.22-26.6L617.22-26.6 618.22-26.2Q618.17-25.95 618.07-25 617.97-24.05 617.82-22.45L617.82-22.45 625.17-22.6 625.32-22.45 624.87-19.8 617.62-19.95Q617.27-14.45 617.27-7.45L617.27-7.45Q617.27-4.9 618.15-3.85 619.02-2.8 621.17-2.8L621.17-2.8Q621.92-2.8 622.67-3 623.42-3.2 623.92-3.43 624.42-3.65 624.57-3.7L624.57-3.7 625.07-2.4Q624.77-2.15 623.8-1.45 622.82-0.75 621.7-0.08 620.57 0.6 620.02 0.6L620.02 0.6ZM633.67 0.6Q632.32 0.6 631.6-0.23 630.87-1.05 630.87-2.25L630.87-2.25Q630.87-3.55 631.72-4.45 632.57-5.35 633.97-5.35L633.97-5.35Q635.32-5.35 636.07-4.53 636.82-3.7 636.82-2.5L636.82-2.5Q636.82-1.2 635.95-0.3 635.07 0.6 633.67 0.6L633.67 0.6Z" opacity="1" transform="matrix(1,0,0,1,0,0)" fill="#8d021f" class="slogan-text-1" data-fill-palette-color="secondary" id="text-1"></path></svg></g></svg></g></svg></g></svg></g><g></g></svg></g><defs></defs></svg><rect width="318.42919853489593" height="247.2" fill="none" stroke="none" visibility="hidden"></rect></g></svg></g></svg>